<?xml version="1.0" encoding="UTF-8"?>
<svg version="1.1" xmlns="http://www.w3.org/2000/svg" width="2000" height="2558">
<path d="M0 0 C0.88331308 -0.01242204 1.76662617 -0.02484408 2.67670631 -0.03764254 C4.125915 -0.01988895 4.125915 -0.01988895 5.60440063 -0.0017767 C6.63405127 -0.00887108 7.6637019 -0.01596547 8.72455406 -0.02327484 C12.18569284 -0.04092144 15.64571854 -0.02271517 19.10684204 -0.00469112 C21.58367425 -0.00982736 24.0605028 -0.01710639 26.537323 -0.02637386 C32.57285877 -0.04300469 38.60795574 -0.03622824 44.64345407 -0.01828564 C49.54800102 -0.00426734 54.45246009 -0.00036516 59.35702515 -0.00372791 C60.40356642 -0.00444408 60.40356642 -0.00444408 61.47124994 -0.00517471 C62.8885449 -0.00620102 64.30583984 -0.00725638 65.72313476 -0.00834047 C78.25930508 -0.01691063 90.79531912 -0.00022239 103.33145142 0.02948856 C115.49948695 0.05832679 127.66729733 0.06540997 139.83535767 0.04999638 C153.08141557 0.03324027 166.32736652 0.02919394 179.5734272 0.04670674 C180.9855461 0.04855115 182.39766501 0.05038588 183.80978394 0.05221081 C184.85200342 0.05357894 184.85200342 0.05357894 185.91527784 0.05497472 C190.81466115 0.06058381 195.71399231 0.05726948 200.6133728 0.05066586 C207.20601406 0.04213286 213.7983781 0.05507271 220.39098358 0.08251476 C222.81458317 0.0894179 225.23821304 0.08947607 227.66181183 0.08229923 C230.96237734 0.07364974 234.26192807 0.08948524 237.56240845 0.1117487 C238.52854757 0.10350793 239.4946867 0.09526716 240.49010277 0.08677667 C246.92283006 0.16723146 246.92283006 0.16723146 250.1472168 2.40857887 C253.10377841 6.97425036 252.72874772 11.8143031 252.72206974 17.09908009 C252.72491196 17.96645442 252.72775418 18.83382875 252.73068252 19.72748715 C252.73905008 22.65398977 252.74029935 25.58045291 252.74162292 28.50696659 C252.74618687 30.61819276 252.75118664 32.72941802 252.75658649 34.84064221 C252.77019606 40.65780705 252.77759411 46.47496602 252.78401315 52.29214263 C252.79200473 58.55934987 252.80570677 64.82654487 252.81872559 71.09374332 C252.84050599 81.95730862 252.85867929 92.82087371 252.87433052 103.6844492 C252.89076315 115.07994649 252.90924238 126.47543743 252.93046379 137.87092686 C252.9317814 138.5790751 252.93309901 139.28722335 252.93445654 140.01683063 C252.94115849 143.6130578 252.94789709 147.20928491 252.9546498 150.80551198 C253.00243155 176.28730986 253.0456112 201.76911367 253.08609009 227.25092411 C253.12542888 252.00841548 253.16684872 276.76590193 253.21109009 301.52338505 C253.21245262 302.28632151 253.21381515 303.04925798 253.21521897 303.83531373 C253.22890417 311.49693268 253.24263172 319.15855156 253.25639031 326.82017038 C253.28441796 342.42821171 253.3121629 358.03625355 253.33973694 373.64429569 C253.34100514 374.36195137 253.34227334 375.07960705 253.34357997 375.81900987 C253.42825687 423.75480275 253.50632266 471.69060676 253.58340454 519.62641239 C254.24994553 518.55534245 254.91648651 517.4842725 255.60322571 516.38074589 C256.4972047 514.94665383 257.39123516 513.51259386 258.28530884 512.07856083 C258.72229851 511.37605198 259.15928818 510.67354313 259.60951996 509.94974613 C263.23612537 504.13653409 266.98200153 498.41073987 270.80825806 492.72675419 C273.62049999 488.54301648 276.42350213 484.35315576 279.22402954 480.16156864 C279.73293228 479.40008015 280.24183502 478.63859165 280.76615906 477.85402775 C287.10017977 468.36758837 293.3727067 458.84063227 299.64590454 449.31391239 C300.25438232 448.39011784 300.86286011 447.46632328 301.48977661 446.51453495 C307.08058212 438.02648851 312.66866793 429.53665324 318.25527954 421.04584599 C321.88438433 415.5303079 325.51477414 410.0156171 329.14590454 404.50141239 C329.73869202 403.60099216 330.33147949 402.70057194 330.94223022 401.77286625 C337.69103866 391.52422046 344.46268241 381.29143093 351.27871704 371.08734989 C351.91041306 370.14144993 352.54210907 369.19554996 353.19294739 368.22098637 C356.19948639 363.72052442 359.20926547 359.222279 362.22427368 354.72748661 C367.61127679 346.68321651 372.89972025 338.59894788 377.9954834 330.36689091 C381.88592169 324.09689279 385.96246058 317.96041205 390.07855225 311.83695316 C392.46674005 308.28274859 394.8451788 304.7220266 397.22402954 301.16156864 C397.73293228 300.40008015 398.24183502 299.63859165 398.76615906 298.85402775 C405.10017851 289.36759025 411.37291605 279.84076816 417.64590454 270.31391239 C418.55911972 268.92722355 418.55911972 268.92722355 419.49078369 267.51252079 C422.60956988 262.77656913 425.7277596 258.04022521 428.84561157 253.30365849 C434.31948911 244.98853118 439.79888153 236.67703913 445.2779541 228.36533451 C448.29667255 223.78584867 451.3150194 219.20611792 454.33340454 214.62641239 C455.5417361 212.79307789 456.75006943 210.95974456 457.95840454 209.12641239 C458.55652954 208.21891239 459.15465454 207.31141239 459.77090454 206.37641239 C523.20840448 110.12641248 523.20840448 110.12641248 525.02064514 107.37680912 C526.22984701 105.54215591 527.439045 103.70750014 528.64823914 101.87284184 C531.65575229 97.30968179 534.66333116 92.74656509 537.67105103 88.1835413 C543.26712245 79.69356984 548.86256965 71.20318908 554.45574951 62.71131229 C557.05973677 58.75787976 559.66408738 54.80468666 562.26846313 50.85151005 C563.49406652 48.99095166 564.71949753 47.13027971 565.94473267 45.2694788 C566.52158813 44.3933997 567.0984436 43.51732059 567.69277954 42.61469364 C568.25826508 41.75579533 568.82375061 40.89689701 569.40637207 40.01197147 C571.05858597 37.50591925 572.71570595 35.00315985 574.37295532 32.50043583 C576.54371807 29.21806801 578.68378633 25.91816839 580.80557251 22.60395145 C581.59253761 21.38900501 581.59253761 21.38900501 582.395401 20.1495142 C583.37264394 18.64062353 584.34104831 17.12594798 585.29789734 15.60404301 C589.3952603 9.3205533 594.572407 3.62946446 601.58340454 0.62641239 C603.73220074 0.37686473 603.73220074 0.37686473 606.09929085 0.37752342 C607.0047377 0.37292463 607.91018456 0.36832583 608.8430692 0.36358768 C609.83391825 0.36873124 610.82476731 0.3738748 611.84564209 0.37917423 C613.4289867 0.37555261 613.4289867 0.37555261 615.04431808 0.37185782 C618.59272823 0.36620754 622.14095942 0.37489405 625.68936157 0.38349247 C628.22854664 0.38241993 630.76773147 0.38048167 633.30691528 0.37773991 C639.49404781 0.373389 645.68111354 0.37834 651.86823882 0.38759021 C659.06921944 0.39796973 666.27018848 0.39790415 673.47117518 0.39741763 C686.31572517 0.39691695 699.16025026 0.40608076 712.00479126 0.42060184 C724.47745212 0.43469526 736.95009108 0.44177237 749.42276001 0.44110966 C750.19122317 0.4410697 750.95968633 0.44102974 751.75143625 0.44098858 C752.51855278 0.44094822 753.28566932 0.44090787 754.0760318 0.44086629 C768.26504187 0.44017704 782.45404259 0.44606238 796.64304963 0.45501951 C801.66658585 0.45803968 806.69012036 0.45909951 811.71365738 0.45955181 C818.46871265 0.46030386 825.22374157 0.46663344 831.97879028 0.47671795 C834.46451551 0.47964911 836.95024341 0.48086708 839.43597031 0.48029041 C842.81571662 0.47980288 846.1953971 0.48542418 849.57513428 0.49269962 C850.57044478 0.49115102 851.56575527 0.48960242 852.5912267 0.48800689 C853.94157374 0.49284356 853.94157374 0.49284356 855.31920052 0.49777794 C856.10001555 0.49848236 856.88083058 0.49918679 857.68530667 0.49991256 C859.58340454 0.62641239 859.58340454 0.62641239 861.58340454 1.62641239 C861.87925488 6.24671336 861.34328522 8.74474593 858.82949829 12.61859989 C858.23008423 13.55832645 857.63067017 14.49805302 857.01309204 15.46625614 C856.35567017 16.4678577 855.69824829 17.46945927 855.02090454 18.50141239 C853.63383082 20.66524739 852.24712207 22.82931638 850.86074829 24.99359989 C850.1477356 26.09671513 849.4347229 27.19983036 848.70010376 28.33637333 C845.44205644 33.40043857 842.26457375 38.51384915 839.08340454 43.62641239 C837.8377357 45.62016751 836.59164019 47.61365612 835.34512329 49.60688114 C832.80483004 53.67121794 830.26592066 57.736415 827.72793579 61.80219364 C821.55482707 71.68920517 815.36714698 81.5662613 809.13467407 91.41596317 C802.57406329 101.79215018 796.08360519 112.2123239 789.58340454 122.62641239 C782.12668612 134.57295522 774.66477607 146.51550875 767.13467407 158.41596317 C761.22098914 167.76897965 755.3663643 177.15890369 749.50674438 186.54584599 C745.74549549 192.57014639 741.98025272 198.59195121 738.21572876 204.61420536 C735.05178089 209.67602642 731.88886016 214.73848387 728.72793579 219.80219364 C722.55482707 229.68920517 716.36714698 239.5662613 710.13467407 249.41596317 C704.22098914 258.76897965 698.3663643 268.15890369 692.50674438 277.54584599 C688.74549549 283.57014639 684.98025272 289.59195121 681.21572876 295.61420536 C678.05178089 300.67602642 674.88886016 305.73848387 671.72793579 310.80219364 C665.55482707 320.68920517 659.36714698 330.5662613 653.13467407 340.41596317 C646.57406329 350.79215018 640.08360519 361.2123239 633.58340454 371.62641239 C626.12668612 383.57295522 618.66477607 395.51550875 611.13467407 407.41596317 C605.22098914 416.76897965 599.3663643 426.15890369 593.50674438 435.54584599 C589.74549549 441.57014639 585.98025272 447.59195121 582.21572876 453.61420536 C579.05178089 458.67602642 575.88886016 463.73848387 572.72793579 468.80219364 C566.55482707 478.68920517 560.36714698 488.5662613 554.13467407 498.41596317 C547.57406329 508.79215018 541.08360519 519.2123239 534.58340454 529.62641239 C527.13400729 541.56122584 519.68038462 553.49268309 512.15664673 565.38080692 C506.13196569 574.90806816 500.135164 584.45461049 494.21279907 594.04584599 C493.176803 595.68661291 492.10790274 597.3073942 490.99697876 598.89838505 C490.52921021 599.57820438 490.06144165 600.25802372 489.57949829 600.95844364 C489.16756226 601.52925663 488.75562622 602.10006962 488.33120728 602.68817997 C486.74880632 606.78961033 488.48294858 610.38524023 490.09536743 614.2562952 C490.74124047 615.61771817 491.39531022 616.97527258 492.05606079 618.32953739 C492.41065369 619.07198704 492.76524658 619.81443668 493.13058472 620.5793848 C494.29556939 623.01504693 495.47082931 625.44560469 496.64590454 627.87641239 C497.46406116 629.58352233 498.28135117 631.29104784 499.09780884 632.99897099 C500.77321299 636.5027325 502.45168544 640.00499785 504.13223267 643.5062952 C507.75829974 651.07001674 511.32855973 658.65986905 514.89590454 666.25141239 C515.56278314 667.66874526 516.22969385 669.08606301 516.89663696 670.50336552 C520.94636263 679.11430979 524.96184987 687.740641 528.95840454 696.37641239 C534.80176028 709.000404 540.75248165 721.57218207 546.71524048 734.14008427 C551.73026348 744.7107681 556.72968795 755.28857879 561.70840454 765.87641239 C562.03458771 766.57002872 562.36077087 767.26364506 562.69683838 767.97828007 C564.33673155 771.46566964 565.97627132 774.95322519 567.6156311 778.44086552 C570.60213909 784.79401626 573.59191229 791.14563053 576.58139038 797.49738407 C578.24885752 801.04033277 579.91612088 804.58337735 581.58340454 808.12641239 C582.25007023 809.54307952 582.91673689 810.95974619 583.58340454 812.37641239 C635.58340453 922.87641236 635.58340453 922.87641236 636.58335876 925.00132084 C637.25017214 926.41829545 637.9169914 927.83526729 638.58381653 929.25223637 C640.24828672 932.78916887 641.91265542 936.32614907 643.57681274 939.8632288 C646.60292253 946.29480612 649.6298301 952.72600253 652.66043091 959.15546513 C659.12920713 972.87925222 665.58734527 986.60689784 671.95840454 1000.37641239 C677.80164791 1013.00045494 683.75248233 1025.57218351 689.71524048 1038.14008427 C694.73026348 1048.7107681 699.72968795 1059.28857879 704.70840454 1069.87641239 C705.03458771 1070.57002872 705.36077087 1071.26364506 705.69683838 1071.97828007 C707.33673155 1075.46566964 708.97627132 1078.95322519 710.6156311 1082.44086552 C713.60213909 1088.79401626 716.59191229 1095.14563053 719.58139038 1101.49738407 C721.24885752 1105.04033277 722.91612088 1108.58337735 724.58340454 1112.12641239 C725.25007023 1113.54307952 725.91673689 1114.95974619 726.58340454 1116.37641239 C778.58340464 1226.8764126 778.58340464 1226.8764126 779.58337402 1229.00135136 C780.2501385 1230.41822332 780.91690689 1231.83509343 781.5836792 1233.25196171 C783.24888156 1236.79047226 784.91401611 1240.32901469 786.57901001 1243.86762333 C789.5964158 1250.2803372 792.61433598 1256.69280657 795.63475037 1263.10410404 C802.28738296 1277.2254696 808.92955877 1291.35132254 815.52090454 1305.50141239 C821.70317543 1318.7727935 827.95021668 1332.01312559 834.20736694 1345.2493372 C834.56477966 1346.00541264 834.92219238 1346.76148808 835.29043579 1347.54047489 C835.64800964 1348.2968726 836.0055835 1349.0532703 836.37399292 1349.83258915 C840.14021823 1357.80133308 843.89421563 1365.77581659 847.64590454 1373.75141239 C847.97395081 1374.44875492 848.30199707 1375.14609745 848.63998413 1375.86457157 C850.29330793 1379.37919209 851.94646057 1382.89389307 853.59951782 1386.40863895 C856.59278079 1392.77271016 859.58765794 1399.13602176 862.58239746 1405.49939823 C864.24946443 1409.04170588 865.91642937 1412.58406154 867.58340454 1416.12641239 C868.25007072 1417.54307929 868.91673738 1418.95974596 869.58340454 1420.37641239 C873.58340453 1428.87641237 873.58340453 1428.87641237 874.58320618 1431.0010004 C875.25052426 1432.41904497 875.91785216 1433.83708492 876.58518982 1435.25512028 C878.24196988 1438.77566745 879.89858472 1442.29629217 881.55484009 1445.81708622 C884.67248109 1452.44397018 887.79183921 1459.0700312 890.91668701 1465.69352055 C892.38929895 1468.81514753 893.86101951 1471.93719438 895.33267212 1475.05927372 C896.03307313 1476.54450985 896.73390871 1478.02954115 897.43521118 1479.51435184 C898.40889489 1481.57592401 899.38106495 1483.63820386 900.35293579 1485.70063114 C901.18208496 1487.45766361 901.18208496 1487.45766361 902.02798462 1489.25019169 C902.54127319 1490.36434452 903.05456177 1491.47849735 903.58340454 1492.62641239 C903.87097626 1493.24907993 904.15854797 1493.87174747 904.45483398 1494.51328373 C906.59813562 1499.29496322 906.59813562 1499.29496322 906.45840454 1502.43891239 C905.58340454 1504.62641239 905.58340454 1504.62641239 902.58340454 1506.62641239 C900.42875689 1506.88056272 900.42875689 1506.88056272 897.87377453 1506.88647461 C896.89963421 1506.8935402 895.92549389 1506.90060579 894.92183417 1506.90788549 C893.84909084 1506.90547041 892.77634751 1506.90305532 891.6710968 1506.90056705 C889.96463532 1506.90842207 889.96463532 1506.90842207 888.22369987 1506.91643578 C884.39133657 1506.93150136 880.55910602 1506.93214237 876.72671509 1506.93280888 C873.98726765 1506.9393424 871.24783184 1506.94880334 868.50839233 1506.95803165 C861.05179396 1506.98089734 853.59522402 1506.98880395 846.13859534 1506.9938581 C841.48360059 1506.99711332 836.82861411 1507.00363474 832.17362404 1507.01085949 C819.28796371 1507.03042751 806.40231109 1507.04683052 793.51663494 1507.04973602 C792.69178614 1507.04992359 791.86693733 1507.05011116 791.01709311 1507.05030442 C789.34488475 1507.05067067 787.6726764 1507.05103437 786.00046804 1507.05139553 C785.17036882 1507.05157834 784.34026961 1507.05176115 783.48501587 1507.0519495 C782.65390471 1507.05213005 781.82279356 1507.0523106 780.96649722 1507.05249662 C767.49766171 1507.05603872 754.02898603 1507.08306237 740.56020596 1507.12044739 C726.73550172 1507.15851359 712.91087682 1507.17789338 699.086119 1507.17819554 C691.3225833 1507.17878049 683.55923825 1507.18729686 675.79575157 1507.2161932 C669.18525917 1507.24068462 662.57502695 1507.24800532 655.96450146 1507.23294567 C652.59136147 1507.2257671 649.21915443 1507.22938418 645.84600258 1507.24935627 C642.18910364 1507.26969128 638.53354371 1507.25933688 634.87666321 1507.24114323 C633.27758646 1507.26094318 633.27758646 1507.26094318 631.64620513 1507.28114313 C623.63607894 1507.18987455 623.63607894 1507.18987455 619.98835468 1504.27411842 C617.36563761 1501.38666404 615.90453586 1498.86335964 614.34902954 1495.29047489 C614.07388519 1494.6718961 613.79874084 1494.0533173 613.51525879 1493.41599369 C612.92023946 1492.07344598 612.33236194 1490.72771469 611.75094604 1489.37922001 C610.80913552 1487.19513176 609.84902559 1485.01992801 608.88369751 1482.84613895 C607.85188096 1480.5223338 606.82117104 1478.19810853 605.79589844 1475.87140751 C602.24115218 1467.80918933 598.54868773 1459.81263859 594.84133911 1451.81971073 C592.93100153 1447.69985707 591.0270325 1443.57706179 589.12246704 1439.45453739 C588.74400635 1438.63569065 588.36554565 1437.81684391 587.97561646 1436.97318363 C583.64573358 1427.60261589 579.33987291 1418.22103717 575.03372192 1408.83954716 C571.04692872 1400.15464534 567.05377137 1391.47276593 563.04434204 1382.79828739 C562.66614822 1381.98002476 562.28795441 1381.16176212 561.89830017 1380.31870365 C561.13376393 1378.66461791 560.3692223 1377.01053466 559.60467529 1375.3564539 C553.74272653 1362.67369443 547.91153357 1349.97825668 542.14590454 1337.25141239 C536.58254595 1324.972608 530.94530143 1312.7292877 525.27090454 1300.50141239 C524.87174835 1299.64122501 524.47259216 1298.78103764 524.06134033 1297.89478397 C522.44344769 1294.40851785 520.82536936 1290.92233798 519.20707703 1287.43625736 C514.90640079 1278.17067605 510.61612833 1268.90030473 506.33340454 1259.62641239 C505.95903259 1258.8157935 505.58466064 1258.0051746 505.19894409 1257.16999149 C499.83479445 1245.55061626 494.52183472 1233.90891209 489.2399292 1222.25196171 C483.97644248 1210.64070118 478.63725078 1199.06546298 473.27090454 1187.50141239 C472.87174835 1186.64122501 472.47259216 1185.78103764 472.06134033 1184.89478397 C470.44344769 1181.40851785 468.82536936 1177.92233798 467.20707703 1174.43625736 C462.90640079 1165.17067605 458.61612833 1155.90030473 454.33340454 1146.62641239 C453.95903259 1145.8157935 453.58466064 1145.0051746 453.19894409 1144.16999149 C447.83511011 1132.5513 442.52207449 1120.91044914 437.24093628 1109.25397587 C431.16265603 1095.84363998 424.97321317 1082.48576383 418.77334595 1069.1312952 C413.4976149 1057.76602212 408.24637835 1046.38987823 403.02090454 1035.00141239 C397.5834602 1023.15120306 392.1313861 1011.3079274 386.66253662 999.47217655 C380.27807231 985.65467276 373.92220561 971.82466278 367.60263062 957.97736454 C362.68760165 947.2094242 357.74481648 936.45460586 352.78109741 925.70902348 C351.65507535 923.27126654 350.52956823 920.8332725 349.40420532 918.39521122 C345.90532204 910.81580407 342.40391332 903.2375899 338.89546204 895.66260624 C337.29677307 892.20887802 335.7011948 888.75371879 334.10632324 885.29822636 C333.34511085 883.65081824 332.58253155 882.004041 331.81854248 880.35791874 C330.76534655 878.0883209 329.7168027 875.81663031 328.66934204 873.54438114 C328.35467484 872.86927998 328.04000763 872.19417881 327.71580505 871.49862003 C325.58340454 866.854406 325.58340454 866.854406 325.58340454 864.62641239 C322.67014364 867.36909472 320.49453371 870.08733003 318.40371704 873.49359989 C317.81179565 874.4504871 317.21987427 875.40737431 316.61001587 876.39325809 C315.98248413 877.41894901 315.35495239 878.44463993 314.70840454 879.50141239 C313.36156054 881.6803001 312.01388586 883.85867452 310.66543579 886.03656864 C309.98432739 887.13887821 309.30321899 888.24118778 308.60147095 889.37690067 C305.571588 894.25565002 302.48722123 899.09893715 299.39590454 903.93891239 C295.10947137 910.6583475 290.83446862 917.38454019 286.58340454 924.12641239 C282.26696794 930.97056349 277.93058494 937.80174911 273.58340454 944.62641239 C269.01024991 951.8071951 264.44472694 958.99268657 259.89590454 966.18891239 C259.40283813 966.96815067 258.90977173 967.74738895 258.40176392 968.55024052 C257.94221313 969.2779163 257.48266235 970.00559208 257.00918579 970.75531864 C256.61126831 971.38510624 256.21335083 972.01489384 255.80337524 972.66376591 C255.40078491 973.31143925 254.99819458 973.95911259 254.58340454 974.62641239 C254.07106311 975.31275387 253.55872169 975.99909535 253.03085476 976.70623505 C251.1110475 980.57937527 251.16875463 984.08533567 251.20423031 988.31189632 C251.19967959 989.19014594 251.19512888 990.06839555 251.19044027 990.97325879 C251.17878322 993.93094505 251.18856076 996.88817604 251.19813538 999.8458643 C251.19413031 1001.9818401 251.18880515 1004.11781378 251.18226963 1006.25378335 C251.16807706 1012.13503106 251.17256314 1018.01614111 251.17998278 1023.89739585 C251.18471056 1030.23562022 251.17217026 1036.57381236 251.16162109 1042.91202641 C251.14562432 1053.89889383 251.14029815 1064.88571667 251.14214897 1075.87259388 C251.14398823 1087.40124666 251.13878183 1098.92986406 251.12446785 1110.45850849 C251.12357797 1111.17527655 251.12268809 1111.89204461 251.12177125 1112.63053292 C251.11720143 1116.27075609 251.11248428 1119.91097906 251.10769642 1123.55120195 C251.0979964 1130.95396756 251.0892652 1138.3567343 251.08083439 1145.75950146 C251.07956801 1146.87115041 251.07956801 1146.87115041 251.07827604 1148.00525691 C251.0584241 1165.64768876 251.04843361 1183.2901244 251.03970337 1200.93256474 C251.03912637 1202.09056289 251.03912637 1202.09056289 251.03853772 1203.27195495 C251.03542172 1209.52684509 251.03233058 1215.78173525 251.02928001 1222.03662543 C251.02048198 1240.04425763 251.00926078 1258.05188789 250.99673462 1276.05951786 C250.99593459 1277.21644069 250.99593459 1277.21644069 250.9951184 1278.3967357 C250.98290336 1296.00440626 250.96860903 1313.61207286 250.94918156 1331.21973705 C250.9483667 1331.95970378 250.94755184 1332.69967051 250.94671229 1333.46206047 C250.93854558 1340.84929655 250.9301086 1348.23653226 250.92122239 1355.62376751 C250.90222375 1371.49861552 250.88924468 1387.37343824 250.88822765 1403.24829821 C250.88743501 1414.82068378 250.87991954 1426.39304254 250.86569791 1437.96542059 C250.85826552 1444.2365606 250.85419636 1450.50765825 250.85881615 1456.77880192 C250.86300263 1462.51654506 250.85810202 1468.25420506 250.84590829 1473.9919361 C250.84313441 1476.07063058 250.84376351 1478.14933288 250.84808939 1480.22802471 C250.85348621 1483.04853282 250.84665168 1485.86875637 250.83673763 1488.68924618 C250.84349847 1489.90609509 250.84349847 1489.90609509 250.85039589 1491.1475268 C250.81731809 1496.00059536 250.32413432 1500.07066197 248.58340454 1504.62641239 C245.46716968 1506.7039023 244.79318467 1506.87719975 241.25862217 1506.8836813 C239.92618893 1506.89335464 239.92618893 1506.89335464 238.56683785 1506.9032234 C237.59000398 1506.90012619 236.61317012 1506.89702899 235.60673523 1506.89383793 C234.05129026 1506.9006346 234.05129026 1506.9006346 232.46442217 1506.90756857 C228.97286966 1506.92027796 225.48147183 1506.918588 221.98989868 1506.91693974 C219.49351296 1506.92292085 216.99712909 1506.92972543 214.50074768 1506.93729496 C208.41374904 1506.95316229 202.32681174 1506.95940512 196.23979814 1506.96051972 C191.2932922 1506.96146944 186.34679906 1506.96557596 181.40029716 1506.97192097 C167.38254555 1506.98953655 153.36482458 1506.99875924 139.34706182 1506.99726002 C138.59111205 1506.99718011 137.83516227 1506.99710019 137.05630493 1506.99701786 C135.92099932 1506.99689522 135.92099932 1506.99689522 134.76275825 1506.9967701 C122.4921313 1506.99595692 110.22162702 1507.01510183 97.95103557 1507.04329459 C85.35805432 1507.0720003 72.76513294 1507.0858362 60.17211813 1507.08410704 C53.09949053 1507.08344238 46.02699156 1507.08896802 38.95439339 1507.11046314 C32.30517078 1507.13054174 25.65617398 1507.13002498 19.00692177 1507.11542988 C16.56234593 1507.11333077 14.1177534 1507.11810767 11.67320633 1507.13015079 C8.3441654 1507.14549305 5.01607662 1507.13636768 1.6870575 1507.12088871 C0.71245435 1507.13117584 -0.26214879 1507.14146296 -1.26628536 1507.15206182 C-2.15718193 1507.14286423 -3.04807851 1507.13366664 -3.96597195 1507.12419033 C-5.11864186 1507.12484243 -5.11864186 1507.12484243 -6.29459804 1507.12550771 C-9.526932 1506.36526044 -10.54130725 1505.38807582 -12.41659546 1502.62641239 C-13.00842075 1499.36465651 -12.94456716 1496.1421856 -12.90728664 1492.83512592 C-12.91172091 1491.82119395 -12.91615517 1490.80726198 -12.9207238 1489.7626048 C-12.93075736 1486.3224347 -12.91193555 1482.88300704 -12.89350891 1479.44287968 C-12.89470254 1476.94643939 -12.89763932 1474.44999944 -12.90216392 1471.95356297 C-12.90794412 1466.46477395 -12.90099627 1460.97621863 -12.88322902 1455.48745918 C-12.85640331 1447.18637599 -12.85254967 1438.88538746 -12.85279194 1430.5842666 C-12.85240416 1415.33827448 -12.82806513 1400.09238305 -12.79506591 1384.84643086 C-12.76524564 1371.00769556 -12.74456071 1357.16897769 -12.73161125 1343.33021641 C-12.72980959 1341.43395281 -12.7280074 1339.53768922 -12.72620469 1337.64142562 C-12.72348003 1334.76487545 -12.72076003 1331.88832528 -12.71805812 1329.01177508 C-12.66858659 1276.86793449 -12.55823361 1224.72424266 -12.44107387 1172.58051755 C-12.42175962 1163.97053043 -12.40282946 1155.36054253 -12.38411427 1146.75055408 C-12.20839327 1065.91906408 -12.01871112 985.08760724 -11.16340213 683.77454418 C-11.02944652 638.80021066 -10.90001937 593.82586584 -10.77377319 548.85151005 C-10.76529313 545.83092792 -10.75681261 542.81034579 -10.74833203 539.78976366 C-10.7462348 539.04276942 -10.74413756 538.29577519 -10.74197677 537.52614476 C-10.71872574 529.24489925 -10.69546143 520.96365377 -10.67218113 512.68240833 C-10.6700913 511.9389158 -10.66800146 511.19542327 -10.6658483 510.42940066 C-10.55242694 470.08317823 -10.43566908 429.7369655 -10.31778282 389.39075589 C-10.30325763 384.41855166 -10.28873486 379.44634742 -10.27421269 374.47414318 C-10.26802695 372.35659137 -10.26183806 370.23903956 -10.25564894 368.12148776 C-10.21099015 352.83785644 -10.16675605 337.55422407 -10.12377667 322.27058792 C-10.12187191 321.59327895 -10.11996715 320.91596997 -10.11800467 320.21813648 C-10.10843452 316.81409596 -10.09887262 313.41005541 -10.08931403 310.00601486 C-10.01959744 285.17920316 -9.94752415 260.35239974 -9.87158746 235.52560619 C-9.83529782 223.64216877 -9.79998376 211.75873099 -9.76792717 199.87528133 C-9.70453444 176.56052919 -9.62779219 153.24593943 -9.51018763 129.93139032 C-9.49967197 127.84362387 -9.48916597 125.75585737 -9.4786694 123.66809082 C-9.47076469 122.09888892 -9.47076469 122.09888892 -9.46270029 120.49798598 C-9.42269821 112.35671678 -9.39334398 104.21543452 -9.36608768 96.07411385 C-9.3284206 84.95680991 -9.27505392 73.83968891 -9.20476837 62.72254221 C-9.16774822 56.80679854 -9.1372504 50.89120115 -9.12355543 44.97535357 C-9.11059023 39.48890254 -9.07904466 34.00287721 -9.03298676 28.51660716 C-9.01932591 26.50020332 -9.01248366 24.48374036 -9.0128668 22.46729029 C-9.01233587 19.71050308 -8.98741218 16.95497851 -8.95632213 14.1983912 C-8.96196272 13.39607207 -8.96760331 12.59375294 -8.97341483 11.76712112 C-8.90578565 8.01199674 -8.54663304 5.83129188 -6.51461396 2.62976341 C-4.11952264 0.34274419 -3.25380326 0.00115185 0 0 Z " fill="#000000" transform="translate(193.41659545898438,450.3735876083374)"/>
<path d="M0 0 C1.7845182 -0.01052147 1.7845182 -0.01052147 3.60508728 -0.02125549 C7.42686789 -0.03867669 11.24849363 -0.04510845 15.0703125 -0.046875 C17.02715469 -0.04788712 17.02715469 -0.04788712 19.02352905 -0.04891968 C37.94658799 -0.03334514 56.46131068 0.33702865 75.1953125 3.203125 C76.92612061 3.45255859 76.92612061 3.45255859 78.69189453 3.70703125 C117.10530103 9.33231654 153.7460362 20.41448247 189.1953125 36.203125 C190.38858154 36.72640381 190.38858154 36.72640381 191.60595703 37.26025391 C218.21944374 48.9716141 243.57294222 64.6845129 266.32714844 82.73193359 C268.08319272 84.11482994 269.85561982 85.47119244 271.640625 86.81640625 C288.20673085 99.3069394 303.3835861 113.32573891 318.0703125 127.953125 C318.86719482 128.74533447 319.66407715 129.53754395 320.48510742 130.35375977 C325.26073165 135.14240888 329.80243524 140.06261249 334.1953125 145.203125 C335.0409375 146.16734375 335.8865625 147.1315625 336.7578125 148.125 C345.07404294 157.77395968 352.66840483 167.9317785 360.1953125 178.203125 C360.73865234 178.94111328 361.28199219 179.67910156 361.84179688 180.43945312 C415.54292235 253.68051133 439.30455383 342.20023415 439.35644531 432.18115234 C439.36108956 434.09700106 439.36611629 436.01284887 439.37149048 437.92869568 C439.38444042 443.06617186 439.39102182 448.20363511 439.39550114 453.34112501 C439.39845331 456.55628216 439.40256135 459.77143592 439.40700531 462.98659134 C439.42061862 473.06457797 439.4303218 483.14255667 439.4342072 493.22055185 C439.43870814 504.8259063 439.45637546 516.43114416 439.4852078 528.03646314 C439.50679527 537.03897542 439.51690949 546.04145475 439.51824832 555.04399264 C439.51929612 560.41004431 439.52520196 565.77598544 439.54306793 571.14200974 C439.55950326 576.173692 439.56172634 581.20517986 439.55292892 586.23687935 C439.55215679 588.08279121 439.55652437 589.9287134 439.56638718 591.77459908 C439.57905298 594.29221665 439.57326008 596.80913938 439.56280518 599.32675171 C439.57086158 600.05796214 439.57891798 600.78917258 439.58721852 601.54254091 C439.54053719 606.34183598 438.64781043 609.75062707 435.1953125 613.203125 C433.84390693 613.30305536 432.48733469 613.33418203 431.13224316 613.33734608 C430.25141982 613.34180392 429.37059649 613.34626176 428.46308154 613.35085469 C427.48431294 613.35067033 426.50554434 613.35048597 425.49711609 613.35029602 C424.46594518 613.35397271 423.43477427 613.3576494 422.37235576 613.3614375 C418.88845036 613.37252342 415.40457473 613.37632644 411.9206543 613.38012695 C409.43441675 613.38638785 406.94818014 613.39303431 404.46194458 613.40003967 C396.97989084 613.41930426 389.49784501 613.4298733 382.01577374 613.43876746 C378.4952288 613.44314696 374.97468536 613.44851466 371.45414162 613.45375633 C359.75580374 613.47077119 348.05746682 613.48526615 336.35911846 613.49250507 C333.32152493 613.49441508 330.2839314 613.49633539 327.24633789 613.49829102 C326.4913271 613.49877476 325.7363163 613.4992585 324.95842639 613.4997569 C312.72324413 613.50806009 300.48815954 613.53340069 288.25301995 613.56587169 C275.70078925 613.5989135 263.14860823 613.61695124 250.5963338 613.62014931 C243.54490628 613.62231715 236.49362117 613.63110542 229.44223595 613.65661049 C222.81110885 613.68053954 216.18019251 613.68416128 209.54901505 613.67384911 C207.11088649 613.67335142 204.67274569 613.67973983 202.23465538 613.69340515 C198.91427768 613.71097893 195.59483653 613.70408915 192.27445984 613.69087219 C190.81634519 613.70732606 190.81634519 613.70732606 189.32877368 613.72411233 C182.92263461 613.66225378 182.92263461 613.66225378 179.60243034 611.56634426 C177.78661506 608.51672786 177.65902932 606.4510233 177.60227966 602.90386963 C177.57240746 601.62084835 177.54253527 600.33782707 177.51175785 599.01592636 C177.49885334 597.60469705 177.4864034 596.19346353 177.47436523 594.78222656 C177.44762137 593.30031522 177.41923562 591.81843272 177.38931179 590.33658218 C177.31527586 586.41202055 177.26573096 582.48753574 177.22277594 578.5625248 C177.18747969 575.53020348 177.14019188 572.49813177 177.09247988 569.46598458 C176.95911759 560.94750506 176.8644822 552.42884057 176.78032112 543.90975189 C176.72965502 538.78493518 176.67261814 533.6601996 176.61460876 528.53546143 C176.4507501 513.9926311 176.29241871 499.44975272 176.14575195 484.90673828 C176.06403057 476.80877969 175.97588152 468.7109162 175.88088506 460.6131022 C175.83130342 456.36241807 175.78486486 452.11175657 175.7465992 447.86095428 C175.39923771 409.67408273 173.00759106 373.36377325 154.1953125 339.203125 C153.63070312 338.14867187 153.06609375 337.09421875 152.484375 336.0078125 C133.3676253 301.63356304 99.05116455 274.7284264 61.53857422 263.40087891 C30.49761211 254.75591112 -3.25236966 254.23681776 -33.8046875 265.203125 C-34.44164551 265.42871094 -35.07860352 265.65429688 -35.73486328 265.88671875 C-77.9693833 281.11566714 -110.20759986 314.44527949 -129.4296875 354.453125 C-151.77461596 402.77789133 -148.7322451 462.22519378 -131.1953125 511.6171875 C-124.01898161 530.12244523 -115.07818382 547.30039087 -101.8046875 562.203125 C-101.11117188 563.00492188 -100.41765625 563.80671875 -99.703125 564.6328125 C-90.24467589 575.3982473 -80.16547315 585.45144367 -68.8046875 594.203125 C-68.23975586 594.64446777 -67.67482422 595.08581055 -67.09277344 595.54052734 C-42.7297417 614.53223327 -15.86075177 629.59749405 11.41015625 643.95166016 C20.25681674 648.61219747 28.99672801 653.42384343 37.67602539 658.39086914 C45.11125261 662.6302473 52.63913064 666.68489576 60.1953125 670.703125 C68.76049592 675.25836393 77.27020885 679.8924834 85.6953125 684.703125 C95.910623 690.53287068 106.25758115 696.10075703 116.63577271 701.63256836 C123.25844779 705.16270919 129.86113041 708.72673609 136.4453125 712.328125 C137.33178467 712.81265137 138.21825684 713.29717773 139.1315918 713.79638672 C140.91816299 714.77289162 142.70470273 715.74945408 144.49121094 716.72607422 C158.10493538 724.16224548 171.76064545 731.5152995 185.46832275 738.77658081 C211.56513038 752.60776003 237.15192952 766.9593017 261.1953125 784.203125 C261.94087402 784.73760254 262.68643555 785.27208008 263.45458984 785.82275391 C274.68334749 793.91050356 285.56440035 802.34640472 296.1953125 811.203125 C297.05697021 811.9161377 297.05697021 811.9161377 297.93603516 812.64355469 C310.5978823 823.12966282 322.4325238 834.35069556 334.0703125 845.953125 C334.56867615 846.44880981 335.06703979 846.94449463 335.58050537 847.4552002 C341.33903338 853.19024144 346.93814822 859.00139481 352.1953125 865.203125 C353.08393578 866.22456742 353.97321683 867.24543812 354.86328125 868.265625 C362.03792133 876.63047669 368.69811724 885.3044295 375.1953125 894.203125 C375.69708008 894.88391113 376.19884766 895.56469727 376.71582031 896.26611328 C384.70969155 907.1413767 391.66708372 918.39592642 398.1953125 930.203125 C398.61522461 930.94723633 399.03513672 931.69134766 399.46777344 932.45800781 C430.36360218 987.32764903 441.46956296 1052.10765696 441.3828125 1114.453125 C441.38190613 1115.6781926 441.38190613 1115.6781926 441.38098145 1116.92800903 C441.25065136 1182.58814749 428.68558008 1247.79464196 400.1953125 1307.203125 C399.78200684 1308.07211426 399.36870117 1308.94110352 398.94287109 1309.83642578 C389.32490098 1329.94409628 378.25264278 1349.13031152 365.1953125 1367.203125 C364.63666504 1367.97817383 364.07801758 1368.75322266 363.50244141 1369.55175781 C356.67026426 1378.99848841 349.7486542 1388.31760146 342.1953125 1397.203125 C341.72351562 1397.76370605 341.25171875 1398.32428711 340.765625 1398.90185547 C330.4495821 1411.15870212 330.4495821 1411.15870212 324.765625 1416.63671875 C323.00001811 1418.39793359 321.38306653 1420.24935406 319.7578125 1422.140625 C314.39982819 1428.33579436 308.595936 1433.95863143 302.38671875 1439.29296875 C299.8208098 1441.52956318 297.3237482 1443.83436567 294.8203125 1446.140625 C289.77048448 1450.73012856 284.60364924 1455.04392187 279.1953125 1459.203125 C278.19661133 1459.9780127 278.19661133 1459.9780127 277.17773438 1460.76855469 C258.28688282 1475.38393549 238.48536555 1488.36435499 217.56787109 1499.89355469 C215.40049165 1501.0898732 213.2447557 1502.3048704 211.08984375 1503.5234375 C126.54153403 1550.55499972 20.44011216 1560.6683444 -98.95605469 1534.5078125 C-152.94249927 1518.70976671 -202.22581087 1491.55957208 -245.8046875 1456.203125 C-246.66578125 1455.51734375 -247.526875 1454.8315625 -248.4140625 1454.125 C-258.18121001 1446.27740749 -267.33548895 1437.80236599 -276.109375 1428.86328125 C-277.9690955 1426.99221036 -277.9690955 1426.99221036 -280.8671875 1424.703125 C-283.79875415 1422.20817466 -286.15196166 1419.60716003 -288.63671875 1416.68359375 C-290.82508172 1414.17979107 -293.0888026 1411.76835997 -295.37548828 1409.35498047 C-301.85879431 1402.49462843 -307.81366964 1395.38039062 -313.52685547 1387.87060547 C-314.72842765 1386.30263871 -315.95522269 1384.75409299 -317.18359375 1383.20703125 C-354.28782423 1336.20018902 -381.0052661 1281.13256748 -395.8046875 1223.203125 C-396.03494629 1222.31592773 -396.26520508 1221.42873047 -396.50244141 1220.51464844 C-407.04473619 1179.32003213 -408.95847181 1136.94913695 -408.97265625 1094.625 C-408.97588322 1092.30381247 -408.97924827 1089.98262513 -408.98274231 1087.66143799 C-408.98864987 1082.86185228 -408.99059026 1078.06228438 -408.98999023 1073.26269531 C-408.98988736 1067.1221396 -409.00370442 1060.98169628 -409.02076244 1054.84116745 C-409.03186823 1050.07651237 -409.03391012 1045.31188502 -409.03338051 1040.54721832 C-409.03455639 1038.28105521 -409.03895605 1036.01489129 -409.04671288 1033.74874115 C-409.05651363 1030.59901298 -409.05363778 1027.44953694 -409.04760742 1024.29980469 C-409.05322693 1023.37621155 -409.05884644 1022.45261841 -409.06463623 1021.5010376 C-409.03959877 1016.35263939 -408.59946244 1012.04931696 -406.8046875 1007.203125 C-403.44619341 1003.95296943 -400.17824294 1003.0788184 -395.59202003 1003.07449055 C-394.2970875 1003.06965388 -394.2970875 1003.06965388 -392.97599471 1003.0647195 C-392.0270796 1003.0662681 -391.07816449 1003.0678167 -390.10049438 1003.06941223 C-388.58898507 1003.0660139 -388.58898507 1003.0660139 -387.04694021 1003.06254691 C-383.65449161 1003.05619298 -380.26208282 1003.05703717 -376.86962891 1003.05786133 C-374.44383187 1003.05487071 -372.01803531 1003.05146841 -369.59223938 1003.04768372 C-363.67737376 1003.03975024 -357.76251754 1003.03662863 -351.84764768 1003.03607134 C-347.04036124 1003.03559642 -342.23307809 1003.03354289 -337.42579269 1003.03037071 C-323.80047427 1003.0215626 -310.17516373 1003.01695157 -296.54984243 1003.01770119 C-295.44767531 1003.01776112 -295.44767531 1003.01776112 -294.32324219 1003.01782227 C-293.2197315 1003.01788359 -293.2197315 1003.01788359 -292.09392767 1003.01794615 C-280.1699746 1003.01835264 -268.24605311 1003.00878272 -256.32210918 1002.9946839 C-244.08282349 1002.98032625 -231.84355322 1002.97341338 -219.60425889 1002.97427768 C-212.73117069 1002.97460986 -205.85811557 1002.97185332 -198.98503494 1002.96109962 C-192.52217481 1002.95105269 -186.05936659 1002.95132374 -179.5965023 1002.95861626 C-177.22168946 1002.95966495 -174.84687231 1002.95728245 -172.47206688 1002.9512558 C-169.23557735 1002.9435731 -165.99933193 1002.94815606 -162.7628479 1002.95588684 C-161.81839424 1002.95074328 -160.87394058 1002.94559971 -159.9008671 1002.94030029 C-151.40231952 1002.98530076 -151.40231952 1002.98530076 -147.8046875 1005.203125 C-145.8633757 1007.97384669 -145.55255894 1010.27488537 -145.53967285 1013.60928345 C-145.53139969 1014.48593658 -145.52312653 1015.36258972 -145.51460266 1016.26580811 C-145.51558456 1017.22045959 -145.51656647 1018.17511108 -145.51757812 1019.15869141 C-145.51074509 1020.17089752 -145.50391205 1021.18310364 -145.49687195 1022.22598267 C-145.48327392 1024.42813519 -145.47422709 1026.6303194 -145.46916199 1028.83250809 C-145.46084582 1032.34339423 -145.44030343 1035.85402359 -145.41662598 1039.36483765 C-145.36835933 1046.85256146 -145.33558714 1054.34031217 -145.3046875 1061.828125 C-145.26875279 1070.43763294 -145.22613737 1079.04702035 -145.16874695 1087.65641403 C-145.14907633 1091.06886332 -145.14043309 1094.48121391 -145.13244629 1097.89370728 C-145.07971792 1108.98580217 -144.74317884 1120.0117218 -143.92382812 1131.07568359 C-143.81123783 1132.63364371 -143.81123783 1132.63364371 -143.69637299 1134.22307777 C-140.76039819 1170.29943024 -125.58926153 1204.09475388 -101.8046875 1231.203125 C-101.04285156 1232.07453125 -100.28101563 1232.9459375 -99.49609375 1233.84375 C-97.29382212 1236.32455514 -95.06043701 1238.77094815 -92.8046875 1241.203125 C-92.26714844 1241.79480469 -91.72960938 1242.38648438 -91.17578125 1242.99609375 C-64.18680509 1271.47318388 -25.32471435 1285.7183994 13.1953125 1287.203125 C45.13156674 1287.56320419 76.09350823 1278.7642403 102.1953125 1260.203125 C102.75250977 1259.80818848 103.30970703 1259.41325195 103.88378906 1259.00634766 C141.63501655 1231.79717764 167.12103098 1189.80446495 175.1953125 1144.203125 C180.69636932 1109.7881397 175.81824611 1076.0513815 155.97265625 1046.83203125 C153.80311567 1043.86712371 151.54648207 1041.02605028 149.1953125 1038.203125 C148.72834961 1037.63754883 148.26138672 1037.07197266 147.78027344 1036.48925781 C138.4679187 1025.24769864 128.68621947 1015.25795969 117.1953125 1006.203125 C116.20789062 1005.41035156 115.22046875 1004.61757812 114.203125 1003.80078125 C100.17116387 992.72567976 84.82765449 983.67559631 69.48046875 974.56396484 C67.4843274 973.37523708 65.4940984 972.17775044 63.5078125 970.97265625 C38.13058268 955.58456548 12.19301388 941.09044342 -13.93505859 927.02246094 C-20.69126583 923.37541233 -27.38496994 919.63070916 -34.0546875 915.828125 C-42.56453102 910.97891166 -51.15822661 906.30299346 -59.8046875 901.703125 C-69.28522097 896.65822378 -78.6886009 891.49852028 -88.02050781 886.18310547 C-95.66347477 881.83361046 -103.35078128 877.56829095 -111.0546875 873.328125 C-113.52347572 871.96881942 -115.99221355 870.60942232 -118.4609375 869.25 C-119.07254227 868.9132576 -119.68414703 868.5765152 -120.31428528 868.22956848 C-130.06629537 862.85830859 -139.79536587 857.44580468 -149.52148438 852.02783203 C-152.80482019 850.20305125 -156.09335068 848.38792886 -159.3828125 846.57421875 C-188.76214708 830.327245 -217.13803641 811.9270074 -242.8046875 790.203125 C-243.83542556 789.34573834 -244.8667031 788.48899995 -245.8984375 787.6328125 C-257.61432229 777.87280269 -268.6341014 767.47093515 -279.45126343 756.73178101 C-280.50314605 755.68794652 -281.55650393 754.64559612 -282.61148071 753.60488892 C-289.49132931 746.80828589 -295.77072394 739.77677367 -301.8046875 732.203125 C-302.72794228 731.11319228 -303.65755858 730.02856402 -304.59765625 728.953125 C-359.82076182 665.53213589 -390.82196132 582.26732431 -402.0546875 499.765625 C-402.20583008 498.65574219 -402.35697266 497.54585937 -402.51269531 496.40234375 C-402.98954958 492.67362327 -403.41153693 488.94138457 -403.8046875 485.203125 C-403.89189056 484.39141846 -403.97909363 483.57971191 -404.06893921 482.7434082 C-405.78763634 466.25994408 -406.15007714 449.82635582 -406.12036133 433.26953125 C-406.11574358 430.48583761 -406.12262517 427.70258245 -406.14086914 424.91894531 C-406.71328785 336.60288135 -380.24268877 251.86706743 -296.4375 141.046875 C-294.41337176 138.86057625 -292.4556517 136.65031325 -290.51171875 134.39453125 C-286.64496154 129.95666762 -282.5392388 125.79014497 -278.3671875 121.640625 C-277.65498047 120.92455078 -276.94277344 120.20847656 -276.20898438 119.47070312 C-271.57136706 114.84151018 -266.77768747 110.4676357 -261.8046875 106.203125 C-260.72179289 105.25358788 -259.63971603 104.30311707 -258.55859375 103.3515625 C-228.49641367 77.1284009 -194.75777709 55.42931668 -158.8046875 38.203125 C-158.01707031 37.82188477 -157.22945312 37.44064453 -156.41796875 37.04785156 C-108.34870107 13.92616118 -53.48949673 0.21153395 0 0 Z " fill="#000000" transform="translate(1408.8046875,428.796875)"/>
</svg>
